<?xml version="1.0" encoding="utf-8" standalone="no"?>
<!DOCTYPE svg PUBLIC "-//W3C//DTD SVG 1.1//EN"
  "http://www.w3.org/Graphics/SVG/1.1/DTD/svg11.dtd">
<!-- Created with matplotlib (https://matplotlib.org/) -->
<svg height="345.6pt" version="1.1" viewBox="0 0 460.8 345.6" width="460.8pt" xmlns="http://www.w3.org/2000/svg" xmlns:xlink="http://www.w3.org/1999/xlink">
 <defs>
  <style type="text/css">
*{stroke-linecap:butt;stroke-linejoin:round;}
  </style>
 </defs>
 <g id="figure_1">
  <g id="patch_1">
   <path d="M 0 345.6 
L 460.8 345.6 
L 460.8 0 
L 0 0 
z
" style="fill:#ffffff;"/>
  </g>
  <g id="axes_1">
   <g id="patch_2">
    <path d="M 57.6 307.584 
L 414.72 307.584 
L 414.72 41.472 
L 57.6 41.472 
z
" style="fill:#ffffff;"/>
   </g>
   <g id="matplotlib.axis_1">
    <g id="xtick_1">
     <g id="line2d_1">
      <defs>
       <path d="M 0 0 
L 0 3.5 
" id="mcee64d7385" style="stroke:#000000;stroke-width:0.8;"/>
      </defs>
      <g>
       <use style="stroke:#000000;stroke-width:0.8;" x="73.832727" xlink:href="#mcee64d7385" y="307.584"/>
      </g>
     </g>
     <g id="text_1">
      <!-- 0.0 -->
      <defs>
       <path d="M 31.78125 66.40625 
Q 24.171875 66.40625 20.328125 58.90625 
Q 16.5 51.421875 16.5 36.375 
Q 16.5 21.390625 20.328125 13.890625 
Q 24.171875 6.390625 31.78125 6.390625 
Q 39.453125 6.390625 43.28125 13.890625 
Q 47.125 21.390625 47.125 36.375 
Q 47.125 51.421875 43.28125 58.90625 
Q 39.453125 66.40625 31.78125 66.40625 
z
M 31.78125 74.21875 
Q 44.046875 74.21875 50.515625 64.515625 
Q 56.984375 54.828125 56.984375 36.375 
Q 56.984375 17.96875 50.515625 8.265625 
Q 44.046875 -1.421875 31.78125 -1.421875 
Q 19.53125 -1.421875 13.0625 8.265625 
Q 6.59375 17.96875 6.59375 36.375 
Q 6.59375 54.828125 13.0625 64.515625 
Q 19.53125 74.21875 31.78125 74.21875 
z
" id="DejaVuSans-48"/>
       <path d="M 10.6875 12.40625 
L 21 12.40625 
L 21 0 
L 10.6875 0 
z
" id="DejaVuSans-46"/>
      </defs>
      <g transform="translate(65.881165 322.182437)scale(0.1 -0.1)">
       <use xlink:href="#DejaVuSans-48"/>
       <use x="63.623047" xlink:href="#DejaVuSans-46"/>
       <use x="95.410156" xlink:href="#DejaVuSans-48"/>
      </g>
     </g>
    </g>
    <g id="xtick_2">
     <g id="line2d_2">
      <g>
       <use style="stroke:#000000;stroke-width:0.8;" x="138.828632" xlink:href="#mcee64d7385" y="307.584"/>
      </g>
     </g>
     <g id="text_2">
      <!-- 0.2 -->
      <defs>
       <path d="M 19.1875 8.296875 
L 53.609375 8.296875 
L 53.609375 0 
L 7.328125 0 
L 7.328125 8.296875 
Q 12.9375 14.109375 22.625 23.890625 
Q 32.328125 33.6875 34.8125 36.53125 
Q 39.546875 41.84375 41.421875 45.53125 
Q 43.3125 49.21875 43.3125 52.78125 
Q 43.3125 58.59375 39.234375 62.25 
Q 35.15625 65.921875 28.609375 65.921875 
Q 23.96875 65.921875 18.8125 64.3125 
Q 13.671875 62.703125 7.8125 59.421875 
L 7.8125 69.390625 
Q 13.765625 71.78125 18.9375 73 
Q 24.125 74.21875 28.421875 74.21875 
Q 39.75 74.21875 46.484375 68.546875 
Q 53.21875 62.890625 53.21875 53.421875 
Q 53.21875 48.921875 51.53125 44.890625 
Q 49.859375 40.875 45.40625 35.40625 
Q 44.1875 33.984375 37.640625 27.21875 
Q 31.109375 20.453125 19.1875 8.296875 
z
" id="DejaVuSans-50"/>
      </defs>
      <g transform="translate(130.87707 322.182437)scale(0.1 -0.1)">
       <use xlink:href="#DejaVuSans-48"/>
       <use x="63.623047" xlink:href="#DejaVuSans-46"/>
       <use x="95.410156" xlink:href="#DejaVuSans-50"/>
      </g>
     </g>
    </g>
    <g id="xtick_3">
     <g id="line2d_3">
      <g>
       <use style="stroke:#000000;stroke-width:0.8;" x="203.824537" xlink:href="#mcee64d7385" y="307.584"/>
      </g>
     </g>
     <g id="text_3">
      <!-- 0.4 -->
      <defs>
       <path d="M 37.796875 64.3125 
L 12.890625 25.390625 
L 37.796875 25.390625 
z
M 35.203125 72.90625 
L 47.609375 72.90625 
L 47.609375 25.390625 
L 58.015625 25.390625 
L 58.015625 17.1875 
L 47.609375 17.1875 
L 47.609375 0 
L 37.796875 0 
L 37.796875 17.1875 
L 4.890625 17.1875 
L 4.890625 26.703125 
z
" id="DejaVuSans-52"/>
      </defs>
      <g transform="translate(195.872975 322.182437)scale(0.1 -0.1)">
       <use xlink:href="#DejaVuSans-48"/>
       <use x="63.623047" xlink:href="#DejaVuSans-46"/>
       <use x="95.410156" xlink:href="#DejaVuSans-52"/>
      </g>
     </g>
    </g>
    <g id="xtick_4">
     <g id="line2d_4">
      <g>
       <use style="stroke:#000000;stroke-width:0.8;" x="268.820442" xlink:href="#mcee64d7385" y="307.584"/>
      </g>
     </g>
     <g id="text_4">
      <!-- 0.6 -->
      <defs>
       <path d="M 33.015625 40.375 
Q 26.375 40.375 22.484375 35.828125 
Q 18.609375 31.296875 18.609375 23.390625 
Q 18.609375 15.53125 22.484375 10.953125 
Q 26.375 6.390625 33.015625 6.390625 
Q 39.65625 6.390625 43.53125 10.953125 
Q 47.40625 15.53125 47.40625 23.390625 
Q 47.40625 31.296875 43.53125 35.828125 
Q 39.65625 40.375 33.015625 40.375 
z
M 52.59375 71.296875 
L 52.59375 62.3125 
Q 48.875 64.0625 45.09375 64.984375 
Q 41.3125 65.921875 37.59375 65.921875 
Q 27.828125 65.921875 22.671875 59.328125 
Q 17.53125 52.734375 16.796875 39.40625 
Q 19.671875 43.65625 24.015625 45.921875 
Q 28.375 48.1875 33.59375 48.1875 
Q 44.578125 48.1875 50.953125 41.515625 
Q 57.328125 34.859375 57.328125 23.390625 
Q 57.328125 12.15625 50.6875 5.359375 
Q 44.046875 -1.421875 33.015625 -1.421875 
Q 20.359375 -1.421875 13.671875 8.265625 
Q 6.984375 17.96875 6.984375 36.375 
Q 6.984375 53.65625 15.1875 63.9375 
Q 23.390625 74.21875 37.203125 74.21875 
Q 40.921875 74.21875 44.703125 73.484375 
Q 48.484375 72.75 52.59375 71.296875 
z
" id="DejaVuSans-54"/>
      </defs>
      <g transform="translate(260.86888 322.182437)scale(0.1 -0.1)">
       <use xlink:href="#DejaVuSans-48"/>
       <use x="63.623047" xlink:href="#DejaVuSans-46"/>
       <use x="95.410156" xlink:href="#DejaVuSans-54"/>
      </g>
     </g>
    </g>
    <g id="xtick_5">
     <g id="line2d_5">
      <g>
       <use style="stroke:#000000;stroke-width:0.8;" x="333.816347" xlink:href="#mcee64d7385" y="307.584"/>
      </g>
     </g>
     <g id="text_5">
      <!-- 0.8 -->
      <defs>
       <path d="M 31.78125 34.625 
Q 24.75 34.625 20.71875 30.859375 
Q 16.703125 27.09375 16.703125 20.515625 
Q 16.703125 13.921875 20.71875 10.15625 
Q 24.75 6.390625 31.78125 6.390625 
Q 38.8125 6.390625 42.859375 10.171875 
Q 46.921875 13.96875 46.921875 20.515625 
Q 46.921875 27.09375 42.890625 30.859375 
Q 38.875 34.625 31.78125 34.625 
z
M 21.921875 38.8125 
Q 15.578125 40.375 12.03125 44.71875 
Q 8.5 49.078125 8.5 55.328125 
Q 8.5 64.0625 14.71875 69.140625 
Q 20.953125 74.21875 31.78125 74.21875 
Q 42.671875 74.21875 48.875 69.140625 
Q 55.078125 64.0625 55.078125 55.328125 
Q 55.078125 49.078125 51.53125 44.71875 
Q 48 40.375 41.703125 38.8125 
Q 48.828125 37.15625 52.796875 32.3125 
Q 56.78125 27.484375 56.78125 20.515625 
Q 56.78125 9.90625 50.3125 4.234375 
Q 43.84375 -1.421875 31.78125 -1.421875 
Q 19.734375 -1.421875 13.25 4.234375 
Q 6.78125 9.90625 6.78125 20.515625 
Q 6.78125 27.484375 10.78125 32.3125 
Q 14.796875 37.15625 21.921875 38.8125 
z
M 18.3125 54.390625 
Q 18.3125 48.734375 21.84375 45.5625 
Q 25.390625 42.390625 31.78125 42.390625 
Q 38.140625 42.390625 41.71875 45.5625 
Q 45.3125 48.734375 45.3125 54.390625 
Q 45.3125 60.0625 41.71875 63.234375 
Q 38.140625 66.40625 31.78125 66.40625 
Q 25.390625 66.40625 21.84375 63.234375 
Q 18.3125 60.0625 18.3125 54.390625 
z
" id="DejaVuSans-56"/>
      </defs>
      <g transform="translate(325.864785 322.182437)scale(0.1 -0.1)">
       <use xlink:href="#DejaVuSans-48"/>
       <use x="63.623047" xlink:href="#DejaVuSans-46"/>
       <use x="95.410156" xlink:href="#DejaVuSans-56"/>
      </g>
     </g>
    </g>
    <g id="xtick_6">
     <g id="line2d_6">
      <g>
       <use style="stroke:#000000;stroke-width:0.8;" x="398.812252" xlink:href="#mcee64d7385" y="307.584"/>
      </g>
     </g>
     <g id="text_6">
      <!-- 1.0 -->
      <defs>
       <path d="M 12.40625 8.296875 
L 28.515625 8.296875 
L 28.515625 63.921875 
L 10.984375 60.40625 
L 10.984375 69.390625 
L 28.421875 72.90625 
L 38.28125 72.90625 
L 38.28125 8.296875 
L 54.390625 8.296875 
L 54.390625 0 
L 12.40625 0 
z
" id="DejaVuSans-49"/>
      </defs>
      <g transform="translate(390.86069 322.182437)scale(0.1 -0.1)">
       <use xlink:href="#DejaVuSans-49"/>
       <use x="63.623047" xlink:href="#DejaVuSans-46"/>
       <use x="95.410156" xlink:href="#DejaVuSans-48"/>
      </g>
     </g>
    </g>
    <g id="text_7">
     <!-- Time (ns) -->
     <defs>
      <path d="M -0.296875 72.90625 
L 61.375 72.90625 
L 61.375 64.59375 
L 35.5 64.59375 
L 35.5 0 
L 25.59375 0 
L 25.59375 64.59375 
L -0.296875 64.59375 
z
" id="DejaVuSans-84"/>
      <path d="M 9.421875 54.6875 
L 18.40625 54.6875 
L 18.40625 0 
L 9.421875 0 
z
M 9.421875 75.984375 
L 18.40625 75.984375 
L 18.40625 64.59375 
L 9.421875 64.59375 
z
" id="DejaVuSans-105"/>
      <path d="M 52 44.1875 
Q 55.375 50.25 60.0625 53.125 
Q 64.75 56 71.09375 56 
Q 79.640625 56 84.28125 50.015625 
Q 88.921875 44.046875 88.921875 33.015625 
L 88.921875 0 
L 79.890625 0 
L 79.890625 32.71875 
Q 79.890625 40.578125 77.09375 44.375 
Q 74.3125 48.1875 68.609375 48.1875 
Q 61.625 48.1875 57.5625 43.546875 
Q 53.515625 38.921875 53.515625 30.90625 
L 53.515625 0 
L 44.484375 0 
L 44.484375 32.71875 
Q 44.484375 40.625 41.703125 44.40625 
Q 38.921875 48.1875 33.109375 48.1875 
Q 26.21875 48.1875 22.15625 43.53125 
Q 18.109375 38.875 18.109375 30.90625 
L 18.109375 0 
L 9.078125 0 
L 9.078125 54.6875 
L 18.109375 54.6875 
L 18.109375 46.1875 
Q 21.1875 51.21875 25.484375 53.609375 
Q 29.78125 56 35.6875 56 
Q 41.65625 56 45.828125 52.96875 
Q 50 49.953125 52 44.1875 
z
" id="DejaVuSans-109"/>
      <path d="M 56.203125 29.59375 
L 56.203125 25.203125 
L 14.890625 25.203125 
Q 15.484375 15.921875 20.484375 11.0625 
Q 25.484375 6.203125 34.421875 6.203125 
Q 39.59375 6.203125 44.453125 7.46875 
Q 49.3125 8.734375 54.109375 11.28125 
L 54.109375 2.78125 
Q 49.265625 0.734375 44.1875 -0.34375 
Q 39.109375 -1.421875 33.890625 -1.421875 
Q 20.796875 -1.421875 13.15625 6.1875 
Q 5.515625 13.8125 5.515625 26.8125 
Q 5.515625 40.234375 12.765625 48.109375 
Q 20.015625 56 32.328125 56 
Q 43.359375 56 49.78125 48.890625 
Q 56.203125 41.796875 56.203125 29.59375 
z
M 47.21875 32.234375 
Q 47.125 39.59375 43.09375 43.984375 
Q 39.0625 48.390625 32.421875 48.390625 
Q 24.90625 48.390625 20.390625 44.140625 
Q 15.875 39.890625 15.1875 32.171875 
z
" id="DejaVuSans-101"/>
      <path id="DejaVuSans-32"/>
      <path d="M 31 75.875 
Q 24.46875 64.65625 21.28125 53.65625 
Q 18.109375 42.671875 18.109375 31.390625 
Q 18.109375 20.125 21.3125 9.0625 
Q 24.515625 -2 31 -13.1875 
L 23.1875 -13.1875 
Q 15.875 -1.703125 12.234375 9.375 
Q 8.59375 20.453125 8.59375 31.390625 
Q 8.59375 42.28125 12.203125 53.3125 
Q 15.828125 64.359375 23.1875 75.875 
z
" id="DejaVuSans-40"/>
      <path d="M 54.890625 33.015625 
L 54.890625 0 
L 45.90625 0 
L 45.90625 32.71875 
Q 45.90625 40.484375 42.875 44.328125 
Q 39.84375 48.1875 33.796875 48.1875 
Q 26.515625 48.1875 22.3125 43.546875 
Q 18.109375 38.921875 18.109375 30.90625 
L 18.109375 0 
L 9.078125 0 
L 9.078125 54.6875 
L 18.109375 54.6875 
L 18.109375 46.1875 
Q 21.34375 51.125 25.703125 53.5625 
Q 30.078125 56 35.796875 56 
Q 45.21875 56 50.046875 50.171875 
Q 54.890625 44.34375 54.890625 33.015625 
z
" id="DejaVuSans-110"/>
      <path d="M 44.28125 53.078125 
L 44.28125 44.578125 
Q 40.484375 46.53125 36.375 47.5 
Q 32.28125 48.484375 27.875 48.484375 
Q 21.1875 48.484375 17.84375 46.4375 
Q 14.5 44.390625 14.5 40.28125 
Q 14.5 37.15625 16.890625 35.375 
Q 19.28125 33.59375 26.515625 31.984375 
L 29.59375 31.296875 
Q 39.15625 29.25 43.1875 25.515625 
Q 47.21875 21.78125 47.21875 15.09375 
Q 47.21875 7.46875 41.1875 3.015625 
Q 35.15625 -1.421875 24.609375 -1.421875 
Q 20.21875 -1.421875 15.453125 -0.5625 
Q 10.6875 0.296875 5.421875 2 
L 5.421875 11.28125 
Q 10.40625 8.6875 15.234375 7.390625 
Q 20.0625 6.109375 24.8125 6.109375 
Q 31.15625 6.109375 34.5625 8.28125 
Q 37.984375 10.453125 37.984375 14.40625 
Q 37.984375 18.0625 35.515625 20.015625 
Q 33.0625 21.96875 24.703125 23.78125 
L 21.578125 24.515625 
Q 13.234375 26.265625 9.515625 29.90625 
Q 5.8125 33.546875 5.8125 39.890625 
Q 5.8125 47.609375 11.28125 51.796875 
Q 16.75 56 26.8125 56 
Q 31.78125 56 36.171875 55.265625 
Q 40.578125 54.546875 44.28125 53.078125 
z
" id="DejaVuSans-115"/>
      <path d="M 8.015625 75.875 
L 15.828125 75.875 
Q 23.140625 64.359375 26.78125 53.3125 
Q 30.421875 42.28125 30.421875 31.390625 
Q 30.421875 20.453125 26.78125 9.375 
Q 23.140625 -1.703125 15.828125 -13.1875 
L 8.015625 -13.1875 
Q 14.5 -2 17.703125 9.0625 
Q 20.90625 20.125 20.90625 31.390625 
Q 20.90625 42.671875 17.703125 53.65625 
Q 14.5 64.65625 8.015625 75.875 
z
" id="DejaVuSans-41"/>
     </defs>
     <g transform="translate(212.508437 335.860562)scale(0.1 -0.1)">
      <use xlink:href="#DejaVuSans-84"/>
      <use x="61.037109" xlink:href="#DejaVuSans-105"/>
      <use x="88.820312" xlink:href="#DejaVuSans-109"/>
      <use x="186.232422" xlink:href="#DejaVuSans-101"/>
      <use x="247.755859" xlink:href="#DejaVuSans-32"/>
      <use x="279.542969" xlink:href="#DejaVuSans-40"/>
      <use x="318.556641" xlink:href="#DejaVuSans-110"/>
      <use x="381.935547" xlink:href="#DejaVuSans-115"/>
      <use x="434.035156" xlink:href="#DejaVuSans-41"/>
     </g>
    </g>
    <g id="text_8">
     <!-- 1e9 -->
     <defs>
      <path d="M 10.984375 1.515625 
L 10.984375 10.5 
Q 14.703125 8.734375 18.5 7.8125 
Q 22.3125 6.890625 25.984375 6.890625 
Q 35.75 6.890625 40.890625 13.453125 
Q 46.046875 20.015625 46.78125 33.40625 
Q 43.953125 29.203125 39.59375 26.953125 
Q 35.25 24.703125 29.984375 24.703125 
Q 19.046875 24.703125 12.671875 31.3125 
Q 6.296875 37.9375 6.296875 49.421875 
Q 6.296875 60.640625 12.9375 67.421875 
Q 19.578125 74.21875 30.609375 74.21875 
Q 43.265625 74.21875 49.921875 64.515625 
Q 56.59375 54.828125 56.59375 36.375 
Q 56.59375 19.140625 48.40625 8.859375 
Q 40.234375 -1.421875 26.421875 -1.421875 
Q 22.703125 -1.421875 18.890625 -0.6875 
Q 15.09375 0.046875 10.984375 1.515625 
z
M 30.609375 32.421875 
Q 37.25 32.421875 41.125 36.953125 
Q 45.015625 41.5 45.015625 49.421875 
Q 45.015625 57.28125 41.125 61.84375 
Q 37.25 66.40625 30.609375 66.40625 
Q 23.96875 66.40625 20.09375 61.84375 
Q 16.21875 57.28125 16.21875 49.421875 
Q 16.21875 41.5 20.09375 36.953125 
Q 23.96875 32.421875 30.609375 32.421875 
z
" id="DejaVuSans-57"/>
     </defs>
     <g transform="translate(395.841875 334.860562)scale(0.1 -0.1)">
      <use xlink:href="#DejaVuSans-49"/>
      <use x="63.623047" xlink:href="#DejaVuSans-101"/>
      <use x="125.146484" xlink:href="#DejaVuSans-57"/>
     </g>
    </g>
   </g>
   <g id="matplotlib.axis_2">
    <g id="ytick_1">
     <g id="line2d_7">
      <defs>
       <path d="M 0 0 
L -3.5 0 
" id="mfabbdb8ccb" style="stroke:#000000;stroke-width:0.8;"/>
      </defs>
      <g>
       <use style="stroke:#000000;stroke-width:0.8;" x="57.6" xlink:href="#mfabbdb8ccb" y="298.702032"/>
      </g>
     </g>
     <g id="text_9">
      <!-- 0 -->
      <g transform="translate(44.2375 302.501251)scale(0.1 -0.1)">
       <use xlink:href="#DejaVuSans-48"/>
      </g>
     </g>
    </g>
    <g id="ytick_2">
     <g id="line2d_8">
      <g>
       <use style="stroke:#000000;stroke-width:0.8;" x="57.6" xlink:href="#mfabbdb8ccb" y="268.366665"/>
      </g>
     </g>
     <g id="text_10">
      <!-- 20000 -->
      <g transform="translate(18.7875 272.165884)scale(0.1 -0.1)">
       <use xlink:href="#DejaVuSans-50"/>
       <use x="63.623047" xlink:href="#DejaVuSans-48"/>
       <use x="127.246094" xlink:href="#DejaVuSans-48"/>
       <use x="190.869141" xlink:href="#DejaVuSans-48"/>
       <use x="254.492188" xlink:href="#DejaVuSans-48"/>
      </g>
     </g>
    </g>
    <g id="ytick_3">
     <g id="line2d_9">
      <g>
       <use style="stroke:#000000;stroke-width:0.8;" x="57.6" xlink:href="#mfabbdb8ccb" y="238.031298"/>
      </g>
     </g>
     <g id="text_11">
      <!-- 40000 -->
      <g transform="translate(18.7875 241.830517)scale(0.1 -0.1)">
       <use xlink:href="#DejaVuSans-52"/>
       <use x="63.623047" xlink:href="#DejaVuSans-48"/>
       <use x="127.246094" xlink:href="#DejaVuSans-48"/>
       <use x="190.869141" xlink:href="#DejaVuSans-48"/>
       <use x="254.492188" xlink:href="#DejaVuSans-48"/>
      </g>
     </g>
    </g>
    <g id="ytick_4">
     <g id="line2d_10">
      <g>
       <use style="stroke:#000000;stroke-width:0.8;" x="57.6" xlink:href="#mfabbdb8ccb" y="207.695932"/>
      </g>
     </g>
     <g id="text_12">
      <!-- 60000 -->
      <g transform="translate(18.7875 211.49515)scale(0.1 -0.1)">
       <use xlink:href="#DejaVuSans-54"/>
       <use x="63.623047" xlink:href="#DejaVuSans-48"/>
       <use x="127.246094" xlink:href="#DejaVuSans-48"/>
       <use x="190.869141" xlink:href="#DejaVuSans-48"/>
       <use x="254.492188" xlink:href="#DejaVuSans-48"/>
      </g>
     </g>
    </g>
    <g id="ytick_5">
     <g id="line2d_11">
      <g>
       <use style="stroke:#000000;stroke-width:0.8;" x="57.6" xlink:href="#mfabbdb8ccb" y="177.360565"/>
      </g>
     </g>
     <g id="text_13">
      <!-- 80000 -->
      <g transform="translate(18.7875 181.159784)scale(0.1 -0.1)">
       <use xlink:href="#DejaVuSans-56"/>
       <use x="63.623047" xlink:href="#DejaVuSans-48"/>
       <use x="127.246094" xlink:href="#DejaVuSans-48"/>
       <use x="190.869141" xlink:href="#DejaVuSans-48"/>
       <use x="254.492188" xlink:href="#DejaVuSans-48"/>
      </g>
     </g>
    </g>
    <g id="ytick_6">
     <g id="line2d_12">
      <g>
       <use style="stroke:#000000;stroke-width:0.8;" x="57.6" xlink:href="#mfabbdb8ccb" y="147.025198"/>
      </g>
     </g>
     <g id="text_14">
      <!-- 100000 -->
      <g transform="translate(12.425 150.824417)scale(0.1 -0.1)">
       <use xlink:href="#DejaVuSans-49"/>
       <use x="63.623047" xlink:href="#DejaVuSans-48"/>
       <use x="127.246094" xlink:href="#DejaVuSans-48"/>
       <use x="190.869141" xlink:href="#DejaVuSans-48"/>
       <use x="254.492188" xlink:href="#DejaVuSans-48"/>
       <use x="318.115234" xlink:href="#DejaVuSans-48"/>
      </g>
     </g>
    </g>
    <g id="ytick_7">
     <g id="line2d_13">
      <g>
       <use style="stroke:#000000;stroke-width:0.8;" x="57.6" xlink:href="#mfabbdb8ccb" y="116.689831"/>
      </g>
     </g>
     <g id="text_15">
      <!-- 120000 -->
      <g transform="translate(12.425 120.48905)scale(0.1 -0.1)">
       <use xlink:href="#DejaVuSans-49"/>
       <use x="63.623047" xlink:href="#DejaVuSans-50"/>
       <use x="127.246094" xlink:href="#DejaVuSans-48"/>
       <use x="190.869141" xlink:href="#DejaVuSans-48"/>
       <use x="254.492188" xlink:href="#DejaVuSans-48"/>
       <use x="318.115234" xlink:href="#DejaVuSans-48"/>
      </g>
     </g>
    </g>
    <g id="ytick_8">
     <g id="line2d_14">
      <g>
       <use style="stroke:#000000;stroke-width:0.8;" x="57.6" xlink:href="#mfabbdb8ccb" y="86.354464"/>
      </g>
     </g>
     <g id="text_16">
      <!-- 140000 -->
      <g transform="translate(12.425 90.153683)scale(0.1 -0.1)">
       <use xlink:href="#DejaVuSans-49"/>
       <use x="63.623047" xlink:href="#DejaVuSans-52"/>
       <use x="127.246094" xlink:href="#DejaVuSans-48"/>
       <use x="190.869141" xlink:href="#DejaVuSans-48"/>
       <use x="254.492188" xlink:href="#DejaVuSans-48"/>
       <use x="318.115234" xlink:href="#DejaVuSans-48"/>
      </g>
     </g>
    </g>
    <g id="ytick_9">
     <g id="line2d_15">
      <g>
       <use style="stroke:#000000;stroke-width:0.8;" x="57.6" xlink:href="#mfabbdb8ccb" y="56.019098"/>
      </g>
     </g>
     <g id="text_17">
      <!-- 160000 -->
      <g transform="translate(12.425 59.818316)scale(0.1 -0.1)">
       <use xlink:href="#DejaVuSans-49"/>
       <use x="63.623047" xlink:href="#DejaVuSans-54"/>
       <use x="127.246094" xlink:href="#DejaVuSans-48"/>
       <use x="190.869141" xlink:href="#DejaVuSans-48"/>
       <use x="254.492188" xlink:href="#DejaVuSans-48"/>
       <use x="318.115234" xlink:href="#DejaVuSans-48"/>
      </g>
     </g>
    </g>
    <g id="text_18">
     <!-- Latency (ns) -->
     <defs>
      <path d="M 9.8125 72.90625 
L 19.671875 72.90625 
L 19.671875 8.296875 
L 55.171875 8.296875 
L 55.171875 0 
L 9.8125 0 
z
" id="DejaVuSans-76"/>
      <path d="M 34.28125 27.484375 
Q 23.390625 27.484375 19.1875 25 
Q 14.984375 22.515625 14.984375 16.5 
Q 14.984375 11.71875 18.140625 8.90625 
Q 21.296875 6.109375 26.703125 6.109375 
Q 34.1875 6.109375 38.703125 11.40625 
Q 43.21875 16.703125 43.21875 25.484375 
L 43.21875 27.484375 
z
M 52.203125 31.203125 
L 52.203125 0 
L 43.21875 0 
L 43.21875 8.296875 
Q 40.140625 3.328125 35.546875 0.953125 
Q 30.953125 -1.421875 24.3125 -1.421875 
Q 15.921875 -1.421875 10.953125 3.296875 
Q 6 8.015625 6 15.921875 
Q 6 25.140625 12.171875 29.828125 
Q 18.359375 34.515625 30.609375 34.515625 
L 43.21875 34.515625 
L 43.21875 35.40625 
Q 43.21875 41.609375 39.140625 45 
Q 35.0625 48.390625 27.6875 48.390625 
Q 23 48.390625 18.546875 47.265625 
Q 14.109375 46.140625 10.015625 43.890625 
L 10.015625 52.203125 
Q 14.9375 54.109375 19.578125 55.046875 
Q 24.21875 56 28.609375 56 
Q 40.484375 56 46.34375 49.84375 
Q 52.203125 43.703125 52.203125 31.203125 
z
" id="DejaVuSans-97"/>
      <path d="M 18.3125 70.21875 
L 18.3125 54.6875 
L 36.8125 54.6875 
L 36.8125 47.703125 
L 18.3125 47.703125 
L 18.3125 18.015625 
Q 18.3125 11.328125 20.140625 9.421875 
Q 21.96875 7.515625 27.59375 7.515625 
L 36.8125 7.515625 
L 36.8125 0 
L 27.59375 0 
Q 17.1875 0 13.234375 3.875 
Q 9.28125 7.765625 9.28125 18.015625 
L 9.28125 47.703125 
L 2.6875 47.703125 
L 2.6875 54.6875 
L 9.28125 54.6875 
L 9.28125 70.21875 
z
" id="DejaVuSans-116"/>
      <path d="M 48.78125 52.59375 
L 48.78125 44.1875 
Q 44.96875 46.296875 41.140625 47.34375 
Q 37.3125 48.390625 33.40625 48.390625 
Q 24.65625 48.390625 19.8125 42.84375 
Q 14.984375 37.3125 14.984375 27.296875 
Q 14.984375 17.28125 19.8125 11.734375 
Q 24.65625 6.203125 33.40625 6.203125 
Q 37.3125 6.203125 41.140625 7.25 
Q 44.96875 8.296875 48.78125 10.40625 
L 48.78125 2.09375 
Q 45.015625 0.34375 40.984375 -0.53125 
Q 36.96875 -1.421875 32.421875 -1.421875 
Q 20.0625 -1.421875 12.78125 6.34375 
Q 5.515625 14.109375 5.515625 27.296875 
Q 5.515625 40.671875 12.859375 48.328125 
Q 20.21875 56 33.015625 56 
Q 37.15625 56 41.109375 55.140625 
Q 45.0625 54.296875 48.78125 52.59375 
z
" id="DejaVuSans-99"/>
      <path d="M 32.171875 -5.078125 
Q 28.375 -14.84375 24.75 -17.8125 
Q 21.140625 -20.796875 15.09375 -20.796875 
L 7.90625 -20.796875 
L 7.90625 -13.28125 
L 13.1875 -13.28125 
Q 16.890625 -13.28125 18.9375 -11.515625 
Q 21 -9.765625 23.484375 -3.21875 
L 25.09375 0.875 
L 2.984375 54.6875 
L 12.5 54.6875 
L 29.59375 11.921875 
L 46.6875 54.6875 
L 56.203125 54.6875 
z
" id="DejaVuSans-121"/>
     </defs>
     <g transform="translate(6.345312 205.556125)rotate(-90)scale(0.1 -0.1)">
      <use xlink:href="#DejaVuSans-76"/>
      <use x="55.712891" xlink:href="#DejaVuSans-97"/>
      <use x="116.992188" xlink:href="#DejaVuSans-116"/>
      <use x="156.201172" xlink:href="#DejaVuSans-101"/>
      <use x="217.724609" xlink:href="#DejaVuSans-110"/>
      <use x="281.103516" xlink:href="#DejaVuSans-99"/>
      <use x="336.083984" xlink:href="#DejaVuSans-121"/>
      <use x="395.263672" xlink:href="#DejaVuSans-32"/>
      <use x="427.050781" xlink:href="#DejaVuSans-40"/>
      <use x="466.064453" xlink:href="#DejaVuSans-110"/>
      <use x="529.443359" xlink:href="#DejaVuSans-115"/>
      <use x="581.542969" xlink:href="#DejaVuSans-41"/>
     </g>
    </g>
   </g>
   <g id="line2d_16">
    <path clip-path="url(#p21a5300524)" d="M 73.832727 220.262357 
L 74.157707 290.811803 
L 74.482686 269.267626 
L 74.807666 294.536986 
L 75.132645 269.203921 
L 75.457625 270.487107 
L 75.782604 267.54306 
L 76.107584 294.899494 
L 76.432563 268.826246 
L 76.757543 270.679737 
L 77.082523 269.156902 
L 77.407502 269.194821 
L 77.732482 289.5271 
L 78.057461 289.612039 
L 78.382441 289.433061 
L 78.70742 293.050553 
L 79.357379 291.474631 
L 80.007338 293.2447 
L 80.332318 266.103647 
L 80.657297 293.978816 
L 80.982277 268.98399 
L 81.307256 295.008701 
L 81.632236 272.480141 
L 81.957215 265.803327 
L 82.282195 294.631026 
L 82.607174 294.832756 
L 82.932154 271.189371 
L 83.257133 271.759676 
L 83.582113 273.784562 
L 83.907093 295.488 
L 84.232072 290.529684 
L 84.557052 294.315538 
L 84.882031 275.324082 
L 85.207011 294.984433 
L 85.53199 181.477074 
L 85.85697 266.953037 
L 86.181949 268.149767 
L 86.506929 294.476316 
L 86.831908 270.186787 
L 87.156888 287.538617 
L 87.481867 286.863655 
L 87.806847 293.180995 
L 88.131826 275.120835 
L 88.456806 287.370256 
L 88.781785 291.882642 
L 89.106765 289.354189 
L 89.431744 289.248015 
L 90.081704 292.997466 
L 90.406683 293.029319 
L 90.731663 293.44188 
L 91.056642 287.619006 
L 91.706601 292.750233 
L 92.031581 290.726864 
L 92.68154 290.66771 
L 93.006519 292.331605 
L 93.656478 290.189928 
L 93.981458 290.126224 
L 94.306437 293.338739 
L 94.631417 291.163693 
L 94.956396 291.245599 
L 95.281376 266.704287 
L 95.606355 291.134875 
L 95.931335 270.191338 
L 96.256314 274.080332 
L 96.581294 265.428685 
L 96.906274 294.834273 
L 97.231253 266.161284 
L 97.556233 263.778441 
L 97.881212 292.273968 
L 98.206192 293.646643 
L 98.531171 270.408235 
L 98.856151 265.631932 
L 99.18113 258.195217 
L 99.50611 291.288068 
L 99.831089 285.399974 
L 100.156069 295.087573 
L 100.481048 295.102741 
L 100.806028 294.617375 
L 101.131007 275.703274 
L 101.455987 271.395652 
L 101.780966 270.641818 
L 102.105946 294.720515 
L 102.430925 292.55457 
L 102.755905 292.11319 
L 103.080885 270.400652 
L 103.405864 294.080439 
L 103.730844 274.558114 
L 104.055823 271.509409 
L 104.380803 270.96944 
L 104.705782 293.60114 
L 105.030762 286.000614 
L 105.355741 292.633442 
L 105.680721 270.183754 
L 106.0057 294.489966 
L 106.33068 268.650301 
L 106.655659 274.940339 
L 106.980639 269.015842 
L 107.305618 295.032969 
L 107.630598 270.000225 
L 107.955577 263.963487 
L 108.280557 267.485423 
L 108.605536 293.406994 
L 108.930516 268.28476 
L 109.255495 256.032305 
L 109.580475 257.412564 
L 109.905455 294.58704 
L 110.230434 273.783045 
L 110.880393 263.400766 
L 111.205373 294.726582 
L 111.530352 158.535953 
L 111.855332 267.004607 
L 112.180311 272.103982 
L 112.505291 295.007184 
L 112.83027 164.240519 
L 113.15525 269.928937 
L 113.480229 232.159888 
L 113.805209 294.406544 
L 114.130188 174.862447 
L 114.455168 267.330713 
L 114.780147 175.646617 
L 115.105127 294.559738 
L 115.430106 291.107573 
L 115.755086 267.083479 
L 116.080066 268.53351 
L 116.405045 294.731133 
L 116.730025 171.091761 
L 117.055004 291.649059 
L 117.379984 255.545423 
L 117.704963 294.380759 
L 118.029943 180.947722 
L 118.354922 269.649851 
L 118.679902 162.041205 
L 119.004881 294.567322 
L 119.329861 259.857595 
L 119.65484 259.388913 
L 119.97982 269.939554 
L 120.304799 294.829723 
L 120.629779 179.622066 
L 120.954758 268.811078 
L 121.279738 181.308713 
L 121.604717 294.650744 
L 121.929697 178.991091 
L 122.254676 294.317055 
L 122.579656 149.602187 
L 122.904636 294.571872 
L 123.229615 289.026567 
L 123.554595 293.980332 
L 123.879574 294.644677 
L 124.204554 294.579456 
L 124.529533 174.90795 
L 124.854513 265.017641 
L 125.179492 180.742958 
L 125.504472 294.39441 
L 125.829451 265.372565 
L 126.154431 267.171452 
L 126.47941 271.692938 
L 126.80439 295.309021 
L 127.129369 267.424752 
L 127.454349 267.670469 
L 127.779328 295.195264 
L 128.104308 294.89646 
L 128.429287 235.666657 
L 128.754267 294.626476 
L 129.079247 150.562302 
L 129.404226 294.356491 
L 129.729206 179.741891 
L 130.054185 268.554745 
L 130.379165 167.184566 
L 130.704144 294.752367 
L 131.029124 175.94997 
L 131.354103 268.428853 
L 131.679083 270.361216 
L 132.004062 274.069714 
L 132.329042 294.993534 
L 132.654021 291.354806 
L 132.979001 294.834273 
L 133.30398 294.621925 
L 133.62896 271.6262 
L 133.953939 271.934104 
L 134.278919 294.914662 
L 134.603898 294.849441 
L 134.928878 293.755851 
L 135.253857 270.177687 
L 135.578837 271.644402 
L 135.903817 294.826689 
L 136.228796 173.134848 
L 136.553776 267.829729 
L 136.878755 270.27021 
L 137.203735 295.272619 
L 137.528714 236.042815 
L 137.853694 294.524852 
L 138.178673 265.540926 
L 138.503653 293.915111 
L 138.828632 173.864414 
L 139.153612 267.976856 
L 139.478591 267.872199 
L 139.803571 294.796354 
L 140.12855 270.612999 
L 140.45353 179.065412 
L 140.778509 268.437953 
L 141.103489 272.398236 
L 141.428468 171.765206 
L 141.753448 268.494074 
L 142.078428 245.518067 
L 142.403407 294.632543 
L 142.728387 290.434128 
L 143.053366 265.587946 
L 143.378346 174.301243 
L 143.703325 294.294303 
L 144.028305 146.157607 
L 144.353284 266.232572 
L 144.678264 289.410309 
L 145.003243 294.383793 
L 145.328223 293.593556 
L 145.653202 294.168412 
L 145.978182 272.486208 
L 146.303161 295.195264 
L 146.628141 243.986131 
L 146.95312 294.602207 
L 147.2781 275.20274 
L 147.603079 294.203297 
L 147.928059 252.27527 
L 148.253038 266.692153 
L 148.578018 270.919386 
L 148.902998 295.022352 
L 149.227977 162.632744 
L 149.552957 267.142633 
L 149.877936 174.660717 
L 150.202916 295.022352 
L 150.527895 254.882595 
L 150.852875 294.611308 
L 151.177854 244.818837 
L 151.502834 294.511201 
L 151.827813 249.099157 
L 152.152793 264.148533 
L 152.477772 156.808354 
L 152.802752 294.603724 
L 153.127731 289.404242 
L 153.452711 267.553677 
L 153.77769 263.241505 
L 154.10267 294.963198 
L 154.427649 265.138982 
L 154.752629 167.845877 
L 155.077609 294.517268 
L 155.402588 295.066338 
L 155.727568 289.17066 
L 156.052547 294.304921 
L 156.377527 261.014889 
L 156.702506 294.899494 
L 157.027486 265.572778 
L 157.352465 270.449188 
L 157.677445 270.230774 
L 158.002424 294.9905 
L 158.327404 270.781361 
L 158.652383 271.272793 
L 158.977363 272.002359 
L 159.302342 295.14066 
L 159.627322 266.137016 
L 159.952301 267.371665 
L 160.277281 127.370914 
L 160.60226 294.442947 
L 161.252219 258.654798 
L 161.577199 270.799562 
L 161.902179 293.974265 
L 162.227158 102.602087 
L 162.552138 263.977138 
L 162.877117 164.768354 
L 163.202097 293.505584 
L 163.527076 264.937252 
L 163.852056 270.226223 
L 164.177035 120.311874 
L 164.502015 292.152626 
L 164.826994 292.111674 
L 165.151974 185.569315 
L 165.476953 290.141392 
L 165.801933 292.163244 
L 166.126912 256.554073 
L 166.451892 146.00593 
L 166.776871 261.911299 
L 167.101851 291.7522 
L 167.42683 261.867313 
L 167.75181 270.479524 
L 168.07679 167.641113 
L 168.401769 291.081788 
L 168.726749 288.509349 
L 169.051728 290.901293 
L 169.376708 153.759649 
L 169.701687 289.519517 
L 170.026667 266.285659 
L 170.351646 290.582771 
L 170.676626 158.965198 
L 171.001605 290.670744 
L 171.326585 269.085613 
L 171.651564 270.946688 
L 171.976544 270.878434 
L 172.301523 291.488282 
L 172.626503 278.310599 
L 172.951482 289.844105 
L 173.276462 288.328853 
L 173.601441 288.950728 
L 173.926421 270.664569 
L 174.2514 271.832481 
L 174.57638 103.709328 
L 174.90136 289.457329 
L 175.226339 266.165834 
L 175.551319 266.241673 
L 175.876298 272.507443 
L 176.201278 290.628274 
L 176.526257 267.503624 
L 176.851237 270.887534 
L 177.176216 288.891574 
L 177.501196 290.775401 
L 178.151155 258.378746 
L 178.476134 270.339981 
L 178.801114 291.095439 
L 179.126093 252.742435 
L 179.451073 266.460088 
L 179.776052 268.982473 
L 180.101032 290.729898 
L 180.426011 269.53306 
L 180.750991 274.084882 
L 181.075971 127.618147 
L 181.40095 290.66771 
L 181.72593 290.438678 
L 182.050909 291.277451 
L 182.375889 164.043339 
L 182.700868 289.404242 
L 183.025848 266.34178 
L 183.350827 266.658784 
L 183.675807 89.498725 
L 184.000786 290.214196 
L 184.325766 270.097298 
L 184.650745 272.91242 
L 184.975725 131.673986 
L 185.300704 290.343122 
L 185.625684 290.2597 
L 185.950663 162.87391 
L 186.275643 287.565919 
L 186.600622 290.318853 
L 186.925602 255.668281 
L 187.250581 271.300095 
L 187.575561 271.797595 
L 187.900541 291.178861 
L 188.22552 272.869951 
L 188.5505 134.434504 
L 188.875479 267.012191 
L 189.200459 291.336605 
L 189.525438 276.473792 
L 189.850418 289.56502 
L 190.175397 270.751025 
L 190.500377 291.177344 
L 190.825356 267.154767 
L 191.150336 272.756193 
L 191.475315 100.763764 
L 191.800295 290.632825 
L 192.125274 266.661818 
L 192.450254 270.552328 
L 192.775233 117.969984 
L 193.100213 289.979097 
L 193.425192 266.592046 
L 193.750172 290.65861 
L 194.075152 210.488302 
L 194.400131 290.150492 
L 194.725111 291.022634 
L 195.05009 90.407269 
L 195.37507 253.180781 
L 195.700049 291.00595 
L 196.025029 132.024359 
L 196.350008 266.626932 
L 196.674988 289.96848 
L 196.999967 291.078754 
L 197.324947 253.860293 
L 197.649926 271.019493 
L 197.974906 264.332062 
L 198.299885 291.395759 
L 198.624865 277.72816 
L 198.949844 269.316162 
L 199.274824 264.068144 
L 199.599803 290.728381 
L 199.924783 271.859783 
L 200.249762 271.286444 
L 200.574742 271.233357 
L 200.899722 291.333572 
L 201.224701 271.231841 
L 201.549681 135.26721 
L 201.87466 267.634066 
L 202.19964 291.115157 
L 202.524619 272.319364 
L 202.849599 288.900675 
L 203.174578 290.661643 
L 203.499558 290.837588 
L 203.824537 291.674844 
L 204.149517 263.96197 
L 204.474496 262.032641 
L 204.799476 291.289585 
L 205.124455 115.248901 
L 205.449435 258.365095 
L 205.774414 270.265659 
L 206.099394 291.112123 
L 206.424373 264.316894 
L 206.749353 271.457839 
L 207.074333 290.590355 
L 207.399312 274.080332 
L 208.049271 290.350706 
L 208.374251 290.180828 
L 208.69923 290.881575 
L 209.02421 258.149714 
L 209.349189 270.723723 
L 209.674169 271.689905 
L 209.999148 290.041285 
L 210.324128 258.967252 
L 210.649107 271.113533 
L 210.974087 261.074043 
L 211.299066 291.177344 
L 211.624046 267.150217 
L 211.949025 261.796025 
L 212.274005 271.655019 
L 212.598984 273.506993 
L 212.923964 285.754898 
L 213.248943 288.915843 
L 213.898903 290.467497 
L 214.223882 271.383518 
L 214.548862 267.447504 
L 214.873841 273.746643 
L 215.198821 295.160378 
L 215.5238 273.55553 
L 215.84878 271.410819 
L 216.173759 271.445705 
L 216.498739 295.260485 
L 216.823718 258.629013 
L 217.148698 271.67322 
L 217.473677 236.691992 
L 217.798657 294.941963 
L 218.123636 165.616228 
L 218.448616 265.971688 
L 218.773595 158.397927 
L 219.098575 291.90236 
L 219.423554 271.495758 
L 219.748534 272.46194 
L 220.073514 272.480141 
L 220.398493 291.447329 
L 220.723473 76.4439 
L 221.048452 266.042976 
L 221.373432 107.813703 
L 221.698411 291.727931 
L 222.023391 266.569295 
L 222.34837 120.421081 
L 222.67335 264.55351 
L 222.998329 291.759783 
L 223.323309 286.13864 
L 223.648288 291.122741 
L 223.973268 172.051876 
L 224.298247 289.693945 
L 224.623227 267.241223 
L 224.948206 269.92287 
L 225.273186 96.174023 
L 225.598165 291.077238 
L 225.923145 266.541993 
L 226.248124 271.462389 
L 226.573104 89.527544 
L 226.898084 290.722314 
L 227.223063 290.725347 
L 227.548043 181.540778 
L 227.873022 288.078587 
L 228.198002 290.704113 
L 228.522981 270.582664 
L 228.847961 100.499846 
L 229.17294 261.565476 
L 229.49792 290.81332 
L 229.822899 258.304424 
L 230.147879 270.262626 
L 230.472858 271.027077 
L 230.797838 291.40486 
L 231.122817 290.664677 
L 231.772776 259.853045 
L 232.097756 291.26835 
L 232.422735 264.137915 
L 232.747715 98.763146 
L 233.072695 261.383464 
L 233.397674 290.877024 
L 233.722654 257.04399 
L 234.047633 271.774844 
L 234.372613 271.57008 
L 234.697592 291.629341 
L 235.022572 262.508906 
L 235.347551 291.330538 
L 235.672531 199.980131 
L 235.99751 290.675294 
L 236.32249 290.705629 
L 236.647469 53.568 
L 236.972449 261.964386 
L 237.297428 291.080271 
L 237.622408 262.411833 
L 237.947387 270.72524 
L 238.272367 291.11819 
L 238.597346 291.623274 
L 238.922326 266.720972 
L 239.247305 271.425987 
L 239.572285 263.531208 
L 239.897265 291.638442 
L 240.222244 289.763716 
L 240.547224 291.535302 
L 240.872203 290.253632 
L 241.197183 291.55502 
L 241.522162 267.236673 
L 241.847142 273.878601 
L 242.172121 101.84977 
L 242.497101 290.605523 
L 242.82208 265.977755 
L 243.14706 271.77181 
L 243.472039 141.843917 
L 243.797019 291.336605 
L 244.121998 267.442953 
L 244.446978 124.903132 
L 244.771957 290.092855 
L 245.096937 291.41396 
L 245.421916 291.454913 
L 245.746896 263.141398 
L 246.071876 289.701529 
L 246.396855 291.644509 
L 246.721835 272.869951 
L 247.046814 270.242908 
L 247.371794 273.284028 
L 247.696773 291.916011 
L 248.021753 266.032359 
L 248.671712 279.255545 
L 248.996691 291.136392 
L 249.321671 290.957413 
L 249.64665 289.555919 
L 249.97163 291.203129 
L 250.296609 291.539852 
L 250.621589 291.674844 
L 250.946568 139.89487 
L 251.271548 259.842427 
L 251.596527 291.771918 
L 251.921507 263.725354 
L 252.246486 270.550812 
L 252.571466 98.541698 
L 252.896446 291.321437 
L 253.221425 266.309927 
L 253.546405 121.349344 
L 253.871384 257.392846 
L 254.196364 291.7613 
L 254.521343 275.3529 
L 254.846323 265.152633 
L 255.171302 268.949104 
L 255.496282 291.374524 
L 255.821261 100.208626 
L 256.146241 260.288357 
L 256.47122 258.586543 
L 256.7962 291.747649 
L 257.121179 263.017023 
L 257.446159 271.330431 
L 257.771138 127.02054 
L 258.096118 290.91191 
L 258.421097 290.180828 
L 258.746077 274.64912 
L 259.071057 288.218129 
L 259.396036 290.723831 
L 259.721016 258.633563 
L 260.370975 271.203022 
L 260.695954 291.545919 
L 261.020934 261.198418 
L 261.345913 271.345598 
L 261.670893 271.583731 
L 261.995872 291.486765 
L 262.320852 277.834333 
L 262.645831 290.384075 
L 262.970811 290.485698 
L 263.29579 290.751132 
L 263.62077 263.150499 
L 263.945749 164.920031 
L 264.270729 259.884897 
L 264.595708 291.565637 
L 264.920688 262.157016 
L 265.245667 271.142351 
L 265.570647 92.468558 
L 265.895627 290.361323 
L 266.220606 264.720354 
L 266.545586 270.996742 
L 266.870565 200.752166 
L 267.195545 290.801186 
L 267.520524 289.652992 
L 267.845504 290.678328 
L 268.170483 86.315028 
L 268.495463 290.192962 
L 268.820442 265.119264 
L 269.145422 270.289928 
L 269.470401 265.073761 
L 269.795381 289.041735 
L 270.12036 270.098815 
L 270.44534 270.569013 
L 270.770319 258.515255 
L 271.095299 291.386658 
L 271.420278 289.290485 
L 271.745258 290.647992 
L 272.070238 188.417806 
L 272.395217 289.578671 
L 272.720197 266.907534 
L 273.045176 271.468457 
L 273.370156 95.800898 
L 273.695135 290.396209 
L 274.020115 266.94242 
L 274.345094 271.086231 
L 274.670074 265.135949 
L 274.995053 291.368457 
L 275.320033 277.922306 
L 275.645012 289.568053 
L 275.969992 264.115164 
L 276.294971 290.647992 
L 276.619951 272.255659 
L 276.94493 100.869937 
L 277.26991 264.186452 
L 277.594889 289.966963 
L 277.919869 264.706703 
L 278.244848 275.437839 
L 278.569828 290.687428 
L 278.894808 291.480698 
L 279.219787 279.096285 
L 279.544767 289.561986 
L 280.194726 291.016567 
L 280.519705 275.791246 
L 280.844685 270.907252 
L 281.169664 270.925453 
L 281.494644 291.321437 
L 281.819623 289.328404 
L 282.144603 271.473007 
L 282.469582 111.021668 
L 282.794562 290.280934 
L 283.119541 269.939554 
L 283.444521 273.601033 
L 283.7695 184.286129 
L 284.09448 290.085271 
L 284.419459 290.590355 
L 284.744439 232.942541 
L 285.394398 291.60204 
L 285.719378 163.562523 
L 286.044357 267.113815 
L 286.369337 265.117748 
L 286.694316 291.052969 
L 287.019296 264.878098 
L 287.344275 270.829897 
L 287.669255 166.134962 
L 287.994234 290.993815 
L 288.319214 291.329021 
L 288.644193 289.561986 
L 288.969173 291.266834 
L 289.294152 291.682428 
L 289.619132 265.60463 
L 289.944111 271.553396 
L 290.269091 266.508624 
L 290.59407 290.597939 
L 290.91905 272.407336 
L 291.244029 270.086681 
L 291.569009 251.52902 
L 291.893989 291.228914 
L 292.218968 269.290377 
L 292.543948 271.148418 
L 292.868927 271.583731 
L 293.193907 291.412443 
L 293.518886 291.690012 
L 293.843866 230.714408 
L 294.493825 291.350256 
L 294.818804 151.13109 
L 295.143784 261.209036 
L 295.468763 270.208022 
L 295.793743 291.51255 
L 296.118722 263.341612 
L 296.443702 266.757374 
L 296.768681 131.018742 
L 297.093661 291.638442 
L 297.41864 292.094989 
L 297.74362 289.938145 
L 298.0686 289.537718 
L 298.393579 291.706697 
L 298.718559 267.361048 
L 299.043538 271.162069 
L 299.368518 271.624684 
L 299.693497 291.996399 
L 300.018477 272.868434 
L 300.343456 119.831058 
L 300.668436 289.678777 
L 300.993415 291.184928 
L 301.643374 253.465933 
L 301.968354 266.044493 
L 302.293333 291.623274 
L 302.943292 258.319592 
L 303.268272 269.831864 
L 303.593251 291.853823 
L 303.918231 73.662147 
L 304.24321 264.608113 
L 304.56819 96.554732 
L 304.89317 290.337055 
L 305.218149 269.179653 
L 305.543129 271.659569 
L 305.868108 156.130358 
L 306.193088 290.435645 
L 306.518067 290.837588 
L 306.843047 202.211297 
L 307.168026 259.637664 
L 307.493006 291.36694 
L 307.817985 271.504859 
L 308.142965 264.21527 
L 308.467944 271.036178 
L 308.792924 291.732482 
L 309.117903 266.886299 
L 309.442883 271.604966 
L 309.767862 132.455121 
L 310.092842 291.277451 
L 310.417821 264.809844 
L 310.742801 292.111674 
L 311.067781 219.25674 
L 311.39276 290.649509 
L 311.71774 290.120157 
L 312.042719 140.949024 
L 312.367699 261.146848 
L 312.692678 283.75428 
L 313.017658 258.871695 
L 313.667617 271.046795 
L 313.992596 291.511033 
L 314.317576 268.797428 
L 314.642555 270.637268 
L 314.967535 220.870581 
L 315.292514 289.816803 
L 315.617494 269.48149 
L 315.942473 273.722374 
L 316.267453 273.754226 
L 316.592432 291.779501 
L 316.917412 167.416632 
L 317.242391 263.359813 
L 317.567371 271.990225 
L 317.892351 291.825004 
L 318.21733 156.571738 
L 318.54231 259.259988 
L 318.867289 266.428235 
L 319.192269 290.711696 
L 319.517248 263.003372 
L 320.167207 274.932755 
L 320.492187 291.316887 
L 320.817166 289.266216 
L 321.142146 288.427443 
L 321.467125 291.266834 
L 321.792105 291.095439 
L 322.117084 262.939668 
L 322.442064 271.429021 
L 322.767043 272.877534 
L 323.092023 291.550469 
L 323.417002 268.157351 
L 323.741982 271.591315 
L 324.066962 272.960957 
L 324.391941 291.462497 
L 324.716921 153.187828 
L 325.0419 269.570979 
L 325.36688 290.767817 
L 325.691859 291.5171 
L 326.016839 281.526147 
L 326.341818 266.270491 
L 326.666798 270.817763 
L 326.991777 291.91146 
L 327.316757 164.844193 
L 327.641736 269.442054 
L 327.966716 270.211056 
L 328.291695 291.426094 
L 328.616675 157.167828 
L 328.941654 269.83338 
L 329.266634 270.892085 
L 329.591613 291.856857 
L 329.916593 193.762898 
L 330.241572 290.746582 
L 330.566552 283.616254 
L 330.891532 291.332055 
L 331.216511 270.437054 
L 331.541491 272.824447 
L 331.86647 291.427611 
L 332.19145 292.011567 
L 332.516429 262.255606 
L 332.841409 292.152626 
L 333.166388 268.037527 
L 333.491368 292.119258 
L 333.816347 272.906353 
L 334.141327 273.478175 
L 334.466306 267.64165 
L 334.791286 292.65771 
L 335.441245 258.362061 
L 335.766224 269.887984 
L 336.091204 291.508 
L 336.416183 167.011654 
L 336.741163 264.470087 
L 337.066143 100.417941 
L 337.391122 290.877024 
L 337.716102 267.685636 
L 338.041081 166.570275 
L 338.366061 263.76024 
L 338.69104 291.583838 
L 339.340999 260.212519 
L 339.665979 272.348182 
L 339.990958 291.277451 
L 340.315938 99.289465 
L 340.640917 259.202351 
L 340.965897 270.302062 
L 341.290876 291.60659 
L 341.615856 137.694039 
L 341.940835 267.127466 
L 342.265815 291.104539 
L 342.590794 291.879608 
L 342.915774 282.480195 
L 343.240753 291.680911 
L 343.565733 291.533785 
L 343.890713 289.167626 
L 344.215692 270.141284 
L 344.540672 271.413853 
L 344.865651 167.002554 
L 345.190631 290.740515 
L 345.51561 269.798495 
L 345.84059 270.913319 
L 346.165569 272.748609 
L 346.490549 291.779501 
L 346.815528 266.347847 
L 347.140508 272.084265 
L 347.465487 190.239445 
L 347.790467 291.318404 
L 348.115446 283.943876 
L 348.440426 265.1587 
L 348.765405 269.313129 
L 349.090385 291.55957 
L 349.415364 272.687938 
L 349.740344 265.091962 
L 350.065324 271.154486 
L 350.390303 291.60659 
L 350.715283 271.586764 
L 351.040262 286.851521 
L 351.365242 131.476806 
L 351.690221 291.25925 
L 352.015201 290.820904 
L 352.34018 289.490698 
L 352.66516 290.893709 
L 352.990139 291.720347 
L 353.315119 95.512712 
L 353.640098 259.795407 
L 353.965078 270.332397 
L 354.290057 291.5171 
L 354.615037 255.293639 
L 354.940016 271.156002 
L 355.264996 146.741562 
L 355.589975 291.128808 
L 355.914955 267.853998 
L 356.239934 289.449745 
L 356.564914 291.039318 
L 356.889894 291.486765 
L 357.214873 165.039856 
L 357.539853 256.340209 
L 357.864832 269.624066 
L 358.189812 290.937695 
L 358.514791 100.856287 
L 358.839771 266.461604 
L 359.16475 270.619066 
L 359.48973 291.330538 
L 359.814709 256.183982 
L 360.139689 266.396383 
L 360.464668 82.266774 
L 360.789648 290.585805 
L 361.114627 290.27335 
L 361.439607 200.45943 
L 361.764586 259.68165 
L 362.089566 291.022634 
L 362.414545 266.546543 
L 362.739525 258.762488 
L 363.064505 290.531201 
L 363.389484 291.221331 
L 363.714464 271.404752 
L 364.039443 271.489691 
L 364.364423 271.406269 
L 364.689402 291.429128 
L 365.014382 282.733495 
L 365.339361 290.235431 
L 365.664341 288.899158 
L 365.98932 290.901293 
L 366.3143 270.895118 
L 366.639279 272.088815 
L 366.964259 144.604436 
L 367.289238 290.81787 
L 367.614218 265.675918 
L 367.939197 166.811441 
L 368.264177 268.137633 
L 368.589156 291.923594 
L 368.914136 242.261565 
L 369.239115 290.253632 
L 369.564095 220.35488 
L 369.889075 291.180378 
L 370.214054 262.499805 
L 370.539034 89.701972 
L 370.864013 264.548959 
L 371.188993 290.830004 
L 371.513972 256.766421 
L 371.838952 270.085164 
L 372.163931 270.846582 
L 372.488911 291.002916 
L 372.81389 263.246055 
L 373.13887 270.840514 
L 373.463849 290.596422 
L 373.788829 291.294136 
L 374.113808 289.37239 
L 374.438788 291.265317 
L 374.763767 291.80377 
L 375.088747 291.430645 
L 375.413726 263.40835 
L 375.738706 292.345256 
L 376.063686 265.358914 
L 376.388665 291.873541 
L 376.713645 267.312511 
L 377.038624 271.931071 
L 377.363604 271.620133 
L 377.688583 292.198129 
L 378.013563 262.458853 
L 378.338542 271.785461 
L 378.663522 271.400202 
L 378.988501 292.15111 
L 379.96344 259.281223 
L 380.288419 291.415477 
L 380.613399 266.613281 
L 380.938378 265.894333 
L 381.263358 271.127184 
L 381.588337 291.720347 
L 381.913317 263.329478 
L 382.238296 271.753609 
L 382.563276 143.080084 
L 382.888256 291.172794 
L 383.213235 291.318404 
L 383.538215 289.61659 
L 383.863194 290.600972 
L 384.188174 292.169311 
L 384.513153 257.450484 
L 384.838133 270.132184 
L 385.163112 272.393685 
L 385.488092 292.05252 
L 385.813071 100.383055 
L 386.138051 260.529523 
L 386.46303 259.015788 
L 386.78801 291.439745 
L 387.112989 256.481269 
L 387.437969 270.635751 
L 387.762948 135.280861 
L 388.087928 291.049936 
L 388.412907 290.896742 
L 388.737887 170.879414 
L 389.062867 258.610811 
L 389.387846 291.514067 
L 389.712826 272.147969 
L 390.037805 109.2607 
L 390.362785 261.636764 
L 390.687764 291.043869 
L 391.012744 257.14258 
L 391.337723 271.116566 
L 391.662703 202.89081 
L 391.987682 290.435645 
L 392.312662 290.805736 
L 392.637641 161.710549 
L 392.962621 259.675583 
L 393.2876 290.993815 
L 393.61258 271.263693 
L 393.937559 105.998131 
L 394.262539 288.838488 
L 394.587518 290.934661 
L 394.912498 254.430598 
L 395.237477 270.992191 
L 395.562457 261.444135 
L 395.887437 291.228914 
L 396.212416 290.77085 
L 396.537396 182.734475 
L 396.862375 257.34886 
L 397.187355 290.459913 
L 397.512334 81.634281 
L 397.837314 258.847427 
L 398.162293 270.913319 
L 398.487273 290.485698 
L 398.487273 290.485698 
" style="fill:none;stroke:#1f77b4;stroke-linecap:square;stroke-width:1.5;"/>
   </g>
   <g id="patch_3">
    <path d="M 57.6 307.584 
L 57.6 41.472 
" style="fill:none;stroke:#000000;stroke-linecap:square;stroke-linejoin:miter;stroke-width:0.8;"/>
   </g>
   <g id="patch_4">
    <path d="M 414.72 307.584 
L 414.72 41.472 
" style="fill:none;stroke:#000000;stroke-linecap:square;stroke-linejoin:miter;stroke-width:0.8;"/>
   </g>
   <g id="patch_5">
    <path d="M 57.6 307.584 
L 414.72 307.584 
" style="fill:none;stroke:#000000;stroke-linecap:square;stroke-linejoin:miter;stroke-width:0.8;"/>
   </g>
   <g id="patch_6">
    <path d="M 57.6 41.472 
L 414.72 41.472 
" style="fill:none;stroke:#000000;stroke-linecap:square;stroke-linejoin:miter;stroke-width:0.8;"/>
   </g>
   <g id="text_19">
    <!-- Scheduling latency vs. time for: pendulum_demo_results -->
    <defs>
     <path d="M 53.515625 70.515625 
L 53.515625 60.890625 
Q 47.90625 63.578125 42.921875 64.890625 
Q 37.9375 66.21875 33.296875 66.21875 
Q 25.25 66.21875 20.875 63.09375 
Q 16.5 59.96875 16.5 54.203125 
Q 16.5 49.359375 19.40625 46.890625 
Q 22.3125 44.4375 30.421875 42.921875 
L 36.375 41.703125 
Q 47.40625 39.59375 52.65625 34.296875 
Q 57.90625 29 57.90625 20.125 
Q 57.90625 9.515625 50.796875 4.046875 
Q 43.703125 -1.421875 29.984375 -1.421875 
Q 24.8125 -1.421875 18.96875 -0.25 
Q 13.140625 0.921875 6.890625 3.21875 
L 6.890625 13.375 
Q 12.890625 10.015625 18.65625 8.296875 
Q 24.421875 6.59375 29.984375 6.59375 
Q 38.421875 6.59375 43.015625 9.90625 
Q 47.609375 13.234375 47.609375 19.390625 
Q 47.609375 24.75 44.3125 27.78125 
Q 41.015625 30.8125 33.5 32.328125 
L 27.484375 33.5 
Q 16.453125 35.6875 11.515625 40.375 
Q 6.59375 45.0625 6.59375 53.421875 
Q 6.59375 63.09375 13.40625 68.65625 
Q 20.21875 74.21875 32.171875 74.21875 
Q 37.3125 74.21875 42.625 73.28125 
Q 47.953125 72.359375 53.515625 70.515625 
z
" id="DejaVuSans-83"/>
     <path d="M 54.890625 33.015625 
L 54.890625 0 
L 45.90625 0 
L 45.90625 32.71875 
Q 45.90625 40.484375 42.875 44.328125 
Q 39.84375 48.1875 33.796875 48.1875 
Q 26.515625 48.1875 22.3125 43.546875 
Q 18.109375 38.921875 18.109375 30.90625 
L 18.109375 0 
L 9.078125 0 
L 9.078125 75.984375 
L 18.109375 75.984375 
L 18.109375 46.1875 
Q 21.34375 51.125 25.703125 53.5625 
Q 30.078125 56 35.796875 56 
Q 45.21875 56 50.046875 50.171875 
Q 54.890625 44.34375 54.890625 33.015625 
z
" id="DejaVuSans-104"/>
     <path d="M 45.40625 46.390625 
L 45.40625 75.984375 
L 54.390625 75.984375 
L 54.390625 0 
L 45.40625 0 
L 45.40625 8.203125 
Q 42.578125 3.328125 38.25 0.953125 
Q 33.9375 -1.421875 27.875 -1.421875 
Q 17.96875 -1.421875 11.734375 6.484375 
Q 5.515625 14.40625 5.515625 27.296875 
Q 5.515625 40.1875 11.734375 48.09375 
Q 17.96875 56 27.875 56 
Q 33.9375 56 38.25 53.625 
Q 42.578125 51.265625 45.40625 46.390625 
z
M 14.796875 27.296875 
Q 14.796875 17.390625 18.875 11.75 
Q 22.953125 6.109375 30.078125 6.109375 
Q 37.203125 6.109375 41.296875 11.75 
Q 45.40625 17.390625 45.40625 27.296875 
Q 45.40625 37.203125 41.296875 42.84375 
Q 37.203125 48.484375 30.078125 48.484375 
Q 22.953125 48.484375 18.875 42.84375 
Q 14.796875 37.203125 14.796875 27.296875 
z
" id="DejaVuSans-100"/>
     <path d="M 8.5 21.578125 
L 8.5 54.6875 
L 17.484375 54.6875 
L 17.484375 21.921875 
Q 17.484375 14.15625 20.5 10.265625 
Q 23.53125 6.390625 29.59375 6.390625 
Q 36.859375 6.390625 41.078125 11.03125 
Q 45.3125 15.671875 45.3125 23.6875 
L 45.3125 54.6875 
L 54.296875 54.6875 
L 54.296875 0 
L 45.3125 0 
L 45.3125 8.40625 
Q 42.046875 3.421875 37.71875 1 
Q 33.40625 -1.421875 27.6875 -1.421875 
Q 18.265625 -1.421875 13.375 4.4375 
Q 8.5 10.296875 8.5 21.578125 
z
M 31.109375 56 
z
" id="DejaVuSans-117"/>
     <path d="M 9.421875 75.984375 
L 18.40625 75.984375 
L 18.40625 0 
L 9.421875 0 
z
" id="DejaVuSans-108"/>
     <path d="M 45.40625 27.984375 
Q 45.40625 37.75 41.375 43.109375 
Q 37.359375 48.484375 30.078125 48.484375 
Q 22.859375 48.484375 18.828125 43.109375 
Q 14.796875 37.75 14.796875 27.984375 
Q 14.796875 18.265625 18.828125 12.890625 
Q 22.859375 7.515625 30.078125 7.515625 
Q 37.359375 7.515625 41.375 12.890625 
Q 45.40625 18.265625 45.40625 27.984375 
z
M 54.390625 6.78125 
Q 54.390625 -7.171875 48.1875 -13.984375 
Q 42 -20.796875 29.203125 -20.796875 
Q 24.46875 -20.796875 20.265625 -20.09375 
Q 16.0625 -19.390625 12.109375 -17.921875 
L 12.109375 -9.1875 
Q 16.0625 -11.328125 19.921875 -12.34375 
Q 23.78125 -13.375 27.78125 -13.375 
Q 36.625 -13.375 41.015625 -8.765625 
Q 45.40625 -4.15625 45.40625 5.171875 
L 45.40625 9.625 
Q 42.625 4.78125 38.28125 2.390625 
Q 33.9375 0 27.875 0 
Q 17.828125 0 11.671875 7.65625 
Q 5.515625 15.328125 5.515625 27.984375 
Q 5.515625 40.671875 11.671875 48.328125 
Q 17.828125 56 27.875 56 
Q 33.9375 56 38.28125 53.609375 
Q 42.625 51.21875 45.40625 46.390625 
L 45.40625 54.6875 
L 54.390625 54.6875 
z
" id="DejaVuSans-103"/>
     <path d="M 2.984375 54.6875 
L 12.5 54.6875 
L 29.59375 8.796875 
L 46.6875 54.6875 
L 56.203125 54.6875 
L 35.6875 0 
L 23.484375 0 
z
" id="DejaVuSans-118"/>
     <path d="M 37.109375 75.984375 
L 37.109375 68.5 
L 28.515625 68.5 
Q 23.6875 68.5 21.796875 66.546875 
Q 19.921875 64.59375 19.921875 59.515625 
L 19.921875 54.6875 
L 34.71875 54.6875 
L 34.71875 47.703125 
L 19.921875 47.703125 
L 19.921875 0 
L 10.890625 0 
L 10.890625 47.703125 
L 2.296875 47.703125 
L 2.296875 54.6875 
L 10.890625 54.6875 
L 10.890625 58.5 
Q 10.890625 67.625 15.140625 71.796875 
Q 19.390625 75.984375 28.609375 75.984375 
z
" id="DejaVuSans-102"/>
     <path d="M 30.609375 48.390625 
Q 23.390625 48.390625 19.1875 42.75 
Q 14.984375 37.109375 14.984375 27.296875 
Q 14.984375 17.484375 19.15625 11.84375 
Q 23.34375 6.203125 30.609375 6.203125 
Q 37.796875 6.203125 41.984375 11.859375 
Q 46.1875 17.53125 46.1875 27.296875 
Q 46.1875 37.015625 41.984375 42.703125 
Q 37.796875 48.390625 30.609375 48.390625 
z
M 30.609375 56 
Q 42.328125 56 49.015625 48.375 
Q 55.71875 40.765625 55.71875 27.296875 
Q 55.71875 13.875 49.015625 6.21875 
Q 42.328125 -1.421875 30.609375 -1.421875 
Q 18.84375 -1.421875 12.171875 6.21875 
Q 5.515625 13.875 5.515625 27.296875 
Q 5.515625 40.765625 12.171875 48.375 
Q 18.84375 56 30.609375 56 
z
" id="DejaVuSans-111"/>
     <path d="M 41.109375 46.296875 
Q 39.59375 47.171875 37.8125 47.578125 
Q 36.03125 48 33.890625 48 
Q 26.265625 48 22.1875 43.046875 
Q 18.109375 38.09375 18.109375 28.8125 
L 18.109375 0 
L 9.078125 0 
L 9.078125 54.6875 
L 18.109375 54.6875 
L 18.109375 46.1875 
Q 20.953125 51.171875 25.484375 53.578125 
Q 30.03125 56 36.53125 56 
Q 37.453125 56 38.578125 55.875 
Q 39.703125 55.765625 41.0625 55.515625 
z
" id="DejaVuSans-114"/>
     <path d="M 11.71875 12.40625 
L 22.015625 12.40625 
L 22.015625 0 
L 11.71875 0 
z
M 11.71875 51.703125 
L 22.015625 51.703125 
L 22.015625 39.3125 
L 11.71875 39.3125 
z
" id="DejaVuSans-58"/>
     <path d="M 18.109375 8.203125 
L 18.109375 -20.796875 
L 9.078125 -20.796875 
L 9.078125 54.6875 
L 18.109375 54.6875 
L 18.109375 46.390625 
Q 20.953125 51.265625 25.265625 53.625 
Q 29.59375 56 35.59375 56 
Q 45.5625 56 51.78125 48.09375 
Q 58.015625 40.1875 58.015625 27.296875 
Q 58.015625 14.40625 51.78125 6.484375 
Q 45.5625 -1.421875 35.59375 -1.421875 
Q 29.59375 -1.421875 25.265625 0.953125 
Q 20.953125 3.328125 18.109375 8.203125 
z
M 48.6875 27.296875 
Q 48.6875 37.203125 44.609375 42.84375 
Q 40.53125 48.484375 33.40625 48.484375 
Q 26.265625 48.484375 22.1875 42.84375 
Q 18.109375 37.203125 18.109375 27.296875 
Q 18.109375 17.390625 22.1875 11.75 
Q 26.265625 6.109375 33.40625 6.109375 
Q 40.53125 6.109375 44.609375 11.75 
Q 48.6875 17.390625 48.6875 27.296875 
z
" id="DejaVuSans-112"/>
     <path d="M 50.984375 -16.609375 
L 50.984375 -23.578125 
L -0.984375 -23.578125 
L -0.984375 -16.609375 
z
" id="DejaVuSans-95"/>
    </defs>
    <g transform="translate(65.541562 35.472)scale(0.12 -0.12)">
     <use xlink:href="#DejaVuSans-83"/>
     <use x="63.476562" xlink:href="#DejaVuSans-99"/>
     <use x="118.457031" xlink:href="#DejaVuSans-104"/>
     <use x="181.835938" xlink:href="#DejaVuSans-101"/>
     <use x="243.359375" xlink:href="#DejaVuSans-100"/>
     <use x="306.835938" xlink:href="#DejaVuSans-117"/>
     <use x="370.214844" xlink:href="#DejaVuSans-108"/>
     <use x="397.998047" xlink:href="#DejaVuSans-105"/>
     <use x="425.78125" xlink:href="#DejaVuSans-110"/>
     <use x="489.160156" xlink:href="#DejaVuSans-103"/>
     <use x="552.636719" xlink:href="#DejaVuSans-32"/>
     <use x="584.423828" xlink:href="#DejaVuSans-108"/>
     <use x="612.207031" xlink:href="#DejaVuSans-97"/>
     <use x="673.486328" xlink:href="#DejaVuSans-116"/>
     <use x="712.695312" xlink:href="#DejaVuSans-101"/>
     <use x="774.21875" xlink:href="#DejaVuSans-110"/>
     <use x="837.597656" xlink:href="#DejaVuSans-99"/>
     <use x="892.578125" xlink:href="#DejaVuSans-121"/>
     <use x="951.757812" xlink:href="#DejaVuSans-32"/>
     <use x="983.544922" xlink:href="#DejaVuSans-118"/>
     <use x="1042.724609" xlink:href="#DejaVuSans-115"/>
     <use x="1094.824219" xlink:href="#DejaVuSans-46"/>
     <use x="1126.611328" xlink:href="#DejaVuSans-32"/>
     <use x="1158.398438" xlink:href="#DejaVuSans-116"/>
     <use x="1197.607422" xlink:href="#DejaVuSans-105"/>
     <use x="1225.390625" xlink:href="#DejaVuSans-109"/>
     <use x="1322.802734" xlink:href="#DejaVuSans-101"/>
     <use x="1384.326172" xlink:href="#DejaVuSans-32"/>
     <use x="1416.113281" xlink:href="#DejaVuSans-102"/>
     <use x="1451.318359" xlink:href="#DejaVuSans-111"/>
     <use x="1512.5" xlink:href="#DejaVuSans-114"/>
     <use x="1553.597656" xlink:href="#DejaVuSans-58"/>
     <use x="1587.289062" xlink:href="#DejaVuSans-32"/>
     <use x="1619.076172" xlink:href="#DejaVuSans-112"/>
     <use x="1682.552734" xlink:href="#DejaVuSans-101"/>
     <use x="1744.076172" xlink:href="#DejaVuSans-110"/>
     <use x="1807.455078" xlink:href="#DejaVuSans-100"/>
     <use x="1870.931641" xlink:href="#DejaVuSans-117"/>
     <use x="1934.310547" xlink:href="#DejaVuSans-108"/>
     <use x="1962.09375" xlink:href="#DejaVuSans-117"/>
     <use x="2025.472656" xlink:href="#DejaVuSans-109"/>
     <use x="2122.884766" xlink:href="#DejaVuSans-95"/>
     <use x="2172.884766" xlink:href="#DejaVuSans-100"/>
     <use x="2236.361328" xlink:href="#DejaVuSans-101"/>
     <use x="2297.884766" xlink:href="#DejaVuSans-109"/>
     <use x="2395.296875" xlink:href="#DejaVuSans-111"/>
     <use x="2456.478516" xlink:href="#DejaVuSans-95"/>
     <use x="2506.478516" xlink:href="#DejaVuSans-114"/>
     <use x="2547.560547" xlink:href="#DejaVuSans-101"/>
     <use x="2609.083984" xlink:href="#DejaVuSans-115"/>
     <use x="2661.183594" xlink:href="#DejaVuSans-117"/>
     <use x="2724.5625" xlink:href="#DejaVuSans-108"/>
     <use x="2752.345703" xlink:href="#DejaVuSans-116"/>
     <use x="2791.554688" xlink:href="#DejaVuSans-115"/>
    </g>
   </g>
  </g>
 </g>
 <defs>
  <clipPath id="p21a5300524">
   <rect height="266.112" width="357.12" x="57.6" y="41.472"/>
  </clipPath>
 </defs>
</svg>
